HIERARCHY
ROOT Hips
{
  OFFSET 19.229 27.075 -233.490
  CHANNELS 6 Xposition Yposition Zposition Zrotation Xrotation Yrotation
  JOINT LeftUpLeg
  {
    OFFSET 8.406 -8.052 2.102
    CHANNELS 6 Xposition Yposition Zposition Zrotation Xrotation Yrotation
    JOINT LeftLeg
    {
      OFFSET -0.000 -53.886 0.000
      CHANNELS 6 Xposition Yposition Zposition Zrotation Xrotation Yrotation
      JOINT LeftFoot
      {
        OFFSET -0.000 -38.735 -0.000
        CHANNELS 6 Xposition Yposition Zposition Zrotation Xrotation Yrotation
        End Site
        {
          OFFSET 0.000 -7.555 4.362
        }
      }
    }
  }
  JOINT RightUpLeg
  {
    OFFSET -8.155 -8.314 1.630
    CHANNELS 6 Xposition Yposition Zposition Zrotation Xrotation Yrotation
    JOINT RightLeg
    {
      OFFSET 0.000 -54.070 0.000
      CHANNELS 6 Xposition Yposition Zposition Zrotation Xrotation Yrotation
      JOINT RightFoot
      {
        OFFSET -0.000 -38.332 -0.000
        CHANNELS 6 Xposition Yposition Zposition Zrotation Xrotation Yrotation
        End Site
        {
          OFFSET 0.000 -7.717 4.456
        }
      }
    }
  }
  JOINT Spine
  {
    OFFSET 0.000 6.257 -6.257
    CHANNELS 6 Xposition Yposition Zposition Zrotation Xrotation Yrotation
    JOINT LeftShoulder
    {
      OFFSET -0.000 37.299 0.000
      CHANNELS 6 Xposition Yposition Zposition Zrotation Xrotation Yrotation
      JOINT LeftArm
      {
        OFFSET 21.800 0.000 -0.000
        CHANNELS 6 Xposition Yposition Zposition Zrotation Xrotation Yrotation
        JOINT LeftForeArm
        {
          OFFSET 25.271 0.000 0.000
          CHANNELS 6 Xposition Yposition Zposition Zrotation Xrotation Yrotation
          JOINT LeftHand
          {
            OFFSET 25.183 -0.000 -0.000
            CHANNELS 6 Xposition Yposition Zposition Zrotation Xrotation Yrotation
            JOINT LeftHandThumb1
            {
            OFFSET 4.970 -0.620 3.390
            CHANNELS 6 Xposition Yposition Zposition Zrotation Xrotation Yrotation
              JOINT LeftHandThumb2
              {
              OFFSET 2.150 -0.000 0.000
              CHANNELS 6 Xposition Yposition Zposition Zrotation Xrotation Yrotation
                JOINT LeftHandThumb3
                {
                OFFSET 2.200 -0.000 0.000
                CHANNELS 6 Xposition Yposition Zposition Zrotation Xrotation Yrotation
                  JOINT LeftHandThumb4
                  {
                  OFFSET 1.700 -0.000 0.000
                  CHANNELS 6 Xposition Yposition Zposition Zrotation Xrotation Yrotation
                  }
                }
              }
            }
            JOINT LeftHandIndex1
            {
            OFFSET 8.730 0.680 2.070
            CHANNELS 6 Xposition Yposition Zposition Zrotation Xrotation Yrotation
              JOINT LeftHandIndex2
              {
              OFFSET 2.670 -0.000 0.000
              CHANNELS 6 Xposition Yposition Zposition Zrotation Xrotation Yrotation
                JOINT LeftHandIndex3
                {
                OFFSET 2.130 -0.000 0.000
                CHANNELS 6 Xposition Yposition Zposition Zrotation Xrotation Yrotation
                  JOINT LeftHandIndex4
                  {
                  OFFSET 1.800 -0.000 0.000
                  CHANNELS 6 Xposition Yposition Zposition Zrotation Xrotation Yrotation
                  }
                }
              }
            }
            JOINT LeftHandMiddle1
            {
            OFFSET 9.220 0.670 0.550
            CHANNELS 6 Xposition Yposition Zposition Zrotation Xrotation Yrotation
              JOINT LeftHandMiddle2
              {
              OFFSET 2.660 -0.000 0.000
              CHANNELS 6 Xposition Yposition Zposition Zrotation Xrotation Yrotation
                JOINT LeftHandMiddle3
                {
                OFFSET 2.280 -0.000 0.000
                CHANNELS 6 Xposition Yposition Zposition Zrotation Xrotation Yrotation
                  JOINT LeftHandMiddle4
                  {
                  OFFSET 1.500 -0.000 0.000
                  CHANNELS 6 Xposition Yposition Zposition Zrotation Xrotation Yrotation
                  }
                }
              }
            }
            JOINT LeftHandRing1
            {
            OFFSET 9.250 0.670 -1.130
            CHANNELS 6 Xposition Yposition Zposition Zrotation Xrotation Yrotation
              JOINT LeftHandRing2
              {
              OFFSET 2.470 -0.000 0.000
              CHANNELS 6 Xposition Yposition Zposition Zrotation Xrotation Yrotation
                JOINT LeftHandRing3
                {
                OFFSET 2.210 -0.000 0.000
                CHANNELS 6 Xposition Yposition Zposition Zrotation Xrotation Yrotation
                  JOINT LeftHandRing4
                  {
                  OFFSET 1.800 -0.000 0.000
                  CHANNELS 6 Xposition Yposition Zposition Zrotation Xrotation Yrotation
                  }
                }
              }
            }
            JOINT LeftHandPinky1
            {
            OFFSET 9.350 0.660 -2.720
            CHANNELS 6 Xposition Yposition Zposition Zrotation Xrotation Yrotation
              JOINT LeftHandPinky2
              {
              OFFSET 1.630 -0.000 0.000
              CHANNELS 6 Xposition Yposition Zposition Zrotation Xrotation Yrotation
                JOINT LeftHandPinky3
                {
                OFFSET 1.710 -0.000 0.000
                CHANNELS 6 Xposition Yposition Zposition Zrotation Xrotation Yrotation
                  JOINT LeftHandPinky4
                  {
                  OFFSET 1.800 -0.000 0.000
                  CHANNELS 6 Xposition Yposition Zposition Zrotation Xrotation Yrotation
                  }
                }
              }
            }
          }
        }
      }
    }
    JOINT RightShoulder
    {
      OFFSET -0.000 37.299 0.000
      CHANNELS 6 Xposition Yposition Zposition Zrotation Xrotation Yrotation
      JOINT RightArm
      {
        OFFSET -22.096 0.000 -0.000
        CHANNELS 6 Xposition Yposition Zposition Zrotation Xrotation Yrotation
        JOINT RightForeArm
        {
          OFFSET -27.997 0.000 0.000
          CHANNELS 6 Xposition Yposition Zposition Zrotation Xrotation Yrotation
          JOINT RightHand
          {
            OFFSET -25.058 0.000 -0.000
            CHANNELS 6 Xposition Yposition Zposition Zrotation Xrotation Yrotation
            JOINT RightHandThumb1
            {
            OFFSET -4.970 -0.620 3.390
            CHANNELS 6 Xposition Yposition Zposition Zrotation Xrotation Yrotation
              JOINT RightHandThumb2
              {
              OFFSET -2.150 0.000 0.000
              CHANNELS 6 Xposition Yposition Zposition Zrotation Xrotation Yrotation
                JOINT RightHandThumb3
                {
                OFFSET -2.200 0.000 0.000
                CHANNELS 6 Xposition Yposition Zposition Zrotation Xrotation Yrotation
                  JOINT RightHandThumb4
                  {
                  OFFSET -1.700 0.000 0.000
                  CHANNELS 6 Xposition Yposition Zposition Zrotation Xrotation Yrotation
                  }
                }
              }
            }
            JOINT RightHandIndex1
            {
            OFFSET -8.730 0.680 2.070
            CHANNELS 6 Xposition Yposition Zposition Zrotation Xrotation Yrotation
              JOINT RightHandIndex2
              {
              OFFSET -2.670 0.000 0.000
              CHANNELS 6 Xposition Yposition Zposition Zrotation Xrotation Yrotation
                JOINT RightHandIndex3
                {
                OFFSET -2.130 0.000 0.000
                CHANNELS 6 Xposition Yposition Zposition Zrotation Xrotation Yrotation
                  JOINT RightHandIndex4
                  {
                  OFFSET -1.800 0.000 0.000
                  CHANNELS 6 Xposition Yposition Zposition Zrotation Xrotation Yrotation
                  }
                }
              }
            }
            JOINT RightHandMiddle1
            {
            OFFSET -9.220 0.670 0.550
            CHANNELS 6 Xposition Yposition Zposition Zrotation Xrotation Yrotation
              JOINT RightHandMiddle2
              {
              OFFSET -2.660 0.000 0.000
              CHANNELS 6 Xposition Yposition Zposition Zrotation Xrotation Yrotation
                JOINT RightHandMiddle3
                {
                OFFSET -2.280 0.000 0.000
                CHANNELS 6 Xposition Yposition Zposition Zrotation Xrotation Yrotation
                  JOINT RightHandMiddle4
                  {
                  OFFSET -1.500 0.000 0.000
                  CHANNELS 6 Xposition Yposition Zposition Zrotation Xrotation Yrotation
                  }
                }
              }
            }
            JOINT RightHandRing1
            {
            OFFSET -9.250 0.670 -1.130
            CHANNELS 6 Xposition Yposition Zposition Zrotation Xrotation Yrotation
              JOINT RightHandRing2
              {
              OFFSET -2.470 0.000 0.000
              CHANNELS 6 Xposition Yposition Zposition Zrotation Xrotation Yrotation
                JOINT RightHandRing3
                {
                OFFSET -2.210 0.000 0.000
                CHANNELS 6 Xposition Yposition Zposition Zrotation Xrotation Yrotation
                  JOINT RightHandRing4
                  {
                  OFFSET -1.800 0.000 0.000
                  CHANNELS 6 Xposition Yposition Zposition Zrotation Xrotation Yrotation
                  }
                }
              }
            }
            JOINT RightHandPinky1
            {
            OFFSET -9.350 0.660 -2.720
            CHANNELS 6 Xposition Yposition Zposition Zrotation Xrotation Yrotation
              JOINT RightHandPinky2
              {
              OFFSET -1.630 0.000 0.000
              CHANNELS 6 Xposition Yposition Zposition Zrotation Xrotation Yrotation
                JOINT RightHandPinky3
                {
                OFFSET -1.710 0.000 0.000
                CHANNELS 6 Xposition Yposition Zposition Zrotation Xrotation Yrotation
                  JOINT RightHandPinky4
                  {
                  OFFSET -1.800 0.000 0.000
                  CHANNELS 6 Xposition Yposition Zposition Zrotation Xrotation Yrotation
                  }
                }
              }
            }
          }
        }
      }
    }
    JOINT Neck
    {
      OFFSET -0.000 37.299 0.000
      CHANNELS 6 Xposition Yposition Zposition Zrotation Xrotation Yrotation
      JOINT Head
      {
        OFFSET -0.000 18.859 -0.000
        CHANNELS 6 Xposition Yposition Zposition Zrotation Xrotation Yrotation
        End Site
        {
          OFFSET -0.000 0.075 -0.000
        }
      }
    }
  }
}
MOTION
Frames:	4
Frame Time:	0.0333333
13.1032 24.798 -202.819 1.16543 4.62777 -8.25106 8.48146 -7.91581 2.29733 5.37239 0.117689 -4.62189 4.47035e-06 -55.0184 7.15256e-05 -2.83302 3.36228 0.166293 5.96046e-06 -35.6549 -7.15256e-05 11.7566 -6.20056 8.88073 -8.24421 -7.55416 0.957775 1.99292 -4.13187 -4.34154 5.96046e-06 -53.0348 3.57628e-05 -0.620461 13 0.139579 -1.19209e-05 -39.3718 0 -1.89762 -13.5076 -0.988643 1.49012e-06 6.53523 -6.53527 0.560567 -4.25269 -0.488156 0 37.2987 4.76837e-05 -30.9569 1.36604e-05 -4.86282 19.6808 -1.78814e-05 0 -29.5384 29.0338 1.74526 23.8004 5.96046e-06 0 4.16322e-05 -1.11597e-05 -120.011 27.0962 -5.96046e-06 -2.38419e-05 -7.26846 0.061054 -4.95799 0.0062 0.0497 0.0339 -45 0 0 0 0.0215 0 0 -45 0 0 0.022 0 0 -45 0 0 0.017 0 0 0 0 -0.0068 0.0873 0.0207 -45 0 0 0 0.0267 0 -80 0 0 0 0.0213 0 -90 0 0 0 0.018 0 0 0 0 -0.0067 0.0922 0.0055 -45 0 0 0 0.0266 0 -80 0 0 0 0.0228 0 -90 0 0 0 0.015 0 0 0 0 -0.0067 0.0925 -0.0113 -45 0 0 0 0.0247 0 -80 0 0 0 0.0221 0 -90 0 0 0 0.018 0 0 0 0 -0.0066 0.0935 -0.0272 -45 0 0 0 0.0163 0 -80 0 0 0 0.0171 0 -90 0 0 0 0.018 0 0 0 0 0 37.2987 4.76837e-05 27.5686 -2.13443e-06 4.70838 -20.3248 0 4.76837e-05 45.8933 27.883 -9.72681 -27.2549 0 2.38419e-05 4.86527e-06 5.12264e-06 21.4831 -24.2801 -5.96046e-06 -4.76837e-05 9.10524 0.0558594 11.5003 -0.0062 0.0497 0.0339 0 0 0 0 0.0215 0 0 0 0 0 0.022 0 0 0 0 0 0.017 0 0 0 0 0.0068 0.0873 0.0207 0 0 0 0 0.0267 0 0 0 0 0 0.0213 0 0 0 0 0 0.018 0 0 0 0 0.0067 0.0922 0.0055 0 0 0 0 0.0266 0 0 0 0 0 0.0228 0 0 0 0 0 0.015 0 0 0 0 0.0067 0.0925 -0.0113 0 0 0 0 0.0247 0 0 0 0 0 0.0221 0 0 0 0 0 0.018 0 0 0 0 0.0066 0.0935 -0.0272 0 0 0 0 0.0163 0 0 0 0 0 0.0171 0 0 0 0 0 0.018 0 0 0 0 0 37.2987 4.76837e-05 0.062467 2.87929 -0.00313902 -1.49012e-06 18.2787 0 1.01386e-05 -9.60495e-06 8.53774e-07 
13.5624 25.0197 -203.894 1.24157 4.7285 -7.47909 8.44758 -7.83122 2.0997 8.01595 -1.50807 -3.2918 0 -53.4702 2.38419e-05 0.00231085 10.1137 -0.00040674 7.45058e-06 -38.2655 0 11.6717 -7.70761 8.94494 -8.19684 -7.62929 1.08669 2.28965 -1.49667 -3.40849 -2.98023e-06 -53.4516 4.76837e-05 0.913329 8.66728 -0.137647 5.96046e-06 -39.5499 -3.57628e-05 -4.67462 -12.3614 -2.941 0 6.5108 -6.51081 0.778657 -4.16551 -0.843667 -5.96046e-06 37.2987 2.38419e-05 -32.1551 1.02453e-05 -4.66297 19.98 -5.96046e-06 0 -29.3982 28.8225 1.09831 23.6005 5.96046e-06 0 1.47683e-05 4.23594e-06 -119.316 26.8858 1.78814e-05 1.19209e-05 -7.5241 0.0477559 -5.42676 0.0062 0.0497 0.0339 -45 0 0 0 0.0215 0 0 -45 0 0 0.022 0 0 -45 0 0 0.017 0 0 0 0 -0.0068 0.0873 0.0207 -45 0 0 0 0.0267 0 -80 0 0 0 0.0213 0 -90 0 0 0 0.018 0 0 0 0 -0.0067 0.0922 0.0055 -45 0 0 0 0.0266 0 -80 0 0 0 0.0228 0 -90 0 0 0 0.015 0 0 0 0 -0.0067 0.0925 -0.0113 -45 0 0 0 0.0247 0 -80 0 0 0 0.0221 0 -90 0 0 0 0.018 0 0 0 0 -0.0066 0.0935 -0.0272 -45 0 0 0 0.0163 0 -80 0 0 0 0.0171 0 -90 0 0 0 0.018 0 0 0 0 -5.96046e-06 37.2987 2.38419e-05 27.6778 -2.77476e-06 4.54588 -20.4935 -5.96046e-06 0 45.0973 28.0257 -8.41977 -27.6183 -5.96046e-06 0 1.37088e-06 6.83019e-06 22.1211 -24.8421 1.19209e-05 4.76837e-05 9.27903 0.0433323 11.5948 -0.0062 0.0497 0.0339 0 0 0 0 0.0215 0 0 0 0 0 0.022 0 0 0 0 0 0.017 0 0 0 0 0.0068 0.0873 0.0207 0 0 0 0 0.0267 0 0 0 0 0 0.0213 0 0 0 0 0 0.018 0 0 0 0 0.0067 0.0922 0.0055 0 0 0 0 0.0266 0 0 0 0 0 0.0228 0 0 0 0 0 0.015 0 0 0 0 0.0067 0.0925 -0.0113 0 0 0 0 0.0247 0 0 0 0 0 0.0221 0 0 0 0 0 0.018 0 0 0 0 0.0066 0.0935 -0.0272 0 0 0 0 0.0163 0 0 0 0 0 0.0171 0 0 0 0 0 0.018 0 0 0 0 -5.96046e-06 37.2987 2.38419e-05 -0.156929 5.6154 0.015358 -7.45058e-06 18.1731 0 9.92512e-06 -1.10991e-05 -8.53774e-07 
14.0065 24.7464 -205.274 1.19056 4.49329 -6.58515 8.52381 -7.87241 1.92332 10.2539 -3.24254 -6.12888 2.98023e-06 -51.7433 4.76837e-05 3.69585 16.4608 -1.78052e-06 8.9407e-06 -40.444 0 12.6208 -6.67848 9.25586 -8.19534 -7.85495 1.19936 2.62187 0.739346 -2.51635 8.9407e-06 -53.1921 0 2.36165 5.11621 -0.210722 -8.9407e-06 -39.5973 -3.57628e-05 -8.42198 -10.7845 -5.36885 -4.47035e-06 6.46406 -6.46405 1.06129 -3.52336 -1.19948 0 37.2987 2.38419e-05 -33.3527 1.10991e-05 -3.96497 20.4713 5.96046e-06 0 -29.3193 28.3637 -1.35657 23.71 -1.19209e-05 2.38419e-05 1.03318e-06 4.09994e-06 -118.288 26.5761 -5.96046e-06 -1.19209e-05 -7.67561 0.0415177 -5.94722 0.0062 0.0497 0.0339 -25.8497 0 0 0 0.0215 0 0 -25.8497 0 0 0.022 0 0 -25.8497 0 0 0.017 0 0 0 0 -0.0068 0.0873 0.0207 -25.8497 0 0 0 0.0267 0 -45.9549 0 0 0 0.0213 0 -51.6993 0 0 0 0.018 0 0 0 0 -0.0067 0.0922 0.0055 -25.8497 0 0 0 0.0266 0 -45.9549 0 0 0 0.0228 0 -51.6993 0 0 0 0.015 0 0 0 0 -0.0067 0.0925 -0.0113 -25.8497 0 0 0 0.0247 0 -45.9549 0 0 0 0.0221 0 -51.6993 0 0 0 0.018 0 0 0 0 -0.0066 0.0935 -0.0272 -25.8497 0 0 0 0.0163 0 -45.9549 0 0 0 0.0171 0 -51.6993 0 0 0 0.018 0 0 0 0 0 37.2987 2.38419e-05 27.7558 -2.34788e-06 3.89317 -20.8482 0 4.76837e-05 43.4352 28.8085 -4.98238 -27.6683 -2.38419e-05 2.38419e-05 4.16267e-06 3.4151e-06 21.43 -25.0695 -2.98023e-05 -2.38419e-05 9.34032 0.0325372 11.3934 -0.0062 0.0497 0.0339 0 0 0 0 0.0215 0 0 0 0 0 0.022 0 0 0 0 0 0.017 0 0 0 0 0.0068 0.0873 0.0207 0 0 0 0 0.0267 0 0 0 0 0 0.0213 0 0 0 0 0 0.018 0 0 0 0 0.0067 0.0922 0.0055 0 0 0 0 0.0266 0 0 0 0 0 0.0228 0 0 0 0 0 0.015 0 0 0 0 0.0067 0.0925 -0.0113 0 0 0 0 0.0247 0 0 0 0 0 0.0221 0 0 0 0 0 0.018 0 0 0 0 0.0066 0.0935 -0.0272 0 0 0 0 0.0163 0 0 0 0 0 0.0171 0 0 0 0 0 0.018 0 0 0 0 0 37.2987 2.38419e-05 -0.18841 6.93198 0.0227443 -4.47035e-06 18.1151 -2.38419e-05 1.0352e-05 -1.02453e-05 0 
14.0065 24.7464 -205.274 1.19056 4.49329 -6.58515 8.52381 -7.87241 1.92332 10.2539 -3.24254 -6.12888 2.98023e-06 -51.7433 4.76837e-05 3.69585 16.4608 -1.78052e-06 8.9407e-06 -40.444 0 12.6208 -6.67848 9.25586 -8.19534 -7.85495 1.19936 2.62187 0.739346 -2.51635 8.9407e-06 -53.1921 0 2.36165 5.11621 -0.210722 -8.9407e-06 -39.5973 -3.57628e-05 -8.42198 -10.7845 -5.36885 -4.47035e-06 6.46406 -6.46405 1.06129 -3.52336 -1.19948 0 37.2987 2.38419e-05 -33.3527 1.10991e-05 -3.96497 20.4713 5.96046e-06 0 -29.3193 28.3637 -1.35657 23.71 -1.19209e-05 2.38419e-05 1.03318e-06 4.09994e-06 -118.288 26.5761 -5.96046e-06 -1.19209e-05 -7.67561 0.0415177 -5.94722 0.0062 0.0497 0.0339 -25.8497 0 0 0 0.0215 0 0 -25.8497 0 0 0.022 0 0 -25.8497 0 0 0.017 0 0 0 0 -0.0068 0.0873 0.0207 -25.8497 0 0 0 0.0267 0 -45.9549 0 0 0 0.0213 0 -51.6993 0 0 0 0.018 0 0 0 0 -0.0067 0.0922 0.0055 -25.8497 0 0 0 0.0266 0 -45.9549 0 0 0 0.0228 0 -51.6993 0 0 0 0.015 0 0 0 0 -0.0067 0.0925 -0.0113 -25.8497 0 0 0 0.0247 0 -45.9549 0 0 0 0.0221 0 -51.6993 0 0 0 0.018 0 0 0 0 -0.0066 0.0935 -0.0272 -25.8497 0 0 0 0.0163 0 -45.9549 0 0 0 0.0171 0 -51.6993 0 0 0 0.018 0 0 0 0 0 37.2987 2.38419e-05 27.7558 -2.34788e-06 3.89317 -20.8482 0 4.76837e-05 43.4352 28.8085 -4.98238 -27.6683 -2.38419e-05 2.38419e-05 4.16267e-06 3.4151e-06 21.43 -25.0695 -2.98023e-05 -2.38419e-05 9.34032 0.0325372 11.3934 -0.0062 0.0497 0.0339 0 0 0 0 0.0215 0 0 0 0 0 0.022 0 0 0 0 0 0.017 0 0 0 0 0.0068 0.0873 0.0207 0 0 0 0 0.0267 0 0 0 0 0 0.0213 0 0 0 0 0 0.018 0 0 0 0 0.0067 0.0922 0.0055 0 0 0 0 0.0266 0 0 0 0 0 0.0228 0 0 0 0 0 0.015 0 0 0 0 0.0067 0.0925 -0.0113 0 0 0 0 0.0247 0 0 0 0 0 0.0221 0 0 0 0 0 0.018 0 0 0 0 0.0066 0.0935 -0.0272 0 0 0 0 0.0163 0 0 0 0 0 0.0171 0 0 0 0 0 0.018 0 0 0 0 0 37.2987 2.38419e-05 -0.18841 6.93198 0.0227443 -4.47035e-06 18.1151 -2.38419e-05 1.0352e-05 -1.02453e-05 0 
